<mxfile host="app.diagrams.net" modified="2022-06-14T13:48:59.368Z" agent="5.0 (X11; Linux x86_64) AppleWebKit/537.36 (KHTML, like Gecko) Chrome/101.0.0.0 Safari/537.36" etag="lC6yGCKrd8PsPFlHveD2" version="19.0.2" type="github">
  <diagram id="KNfY7tNGfUH9C-cH5hl0" name="Page-1">
    <mxGraphModel dx="1751" dy="1517" grid="0" gridSize="10" guides="1" tooltips="1" connect="1" arrows="1" fold="1" page="0" pageScale="1" pageWidth="850" pageHeight="1100" math="0" shadow="0">
      <root>
        <mxCell id="0" />
        <mxCell id="1" parent="0" />
        <mxCell id="wpAMq6OOOU0-o7n1YvAS-1" value="tunnels-training-atropia-pivot" style="ellipse;whiteSpace=wrap;html=1;aspect=fixed;hachureGap=4;" vertex="1" parent="1">
          <mxGeometry x="365" y="173" width="160" height="160" as="geometry" />
        </mxCell>
        <mxCell id="wpAMq6OOOU0-o7n1YvAS-2" value="IP:10.50.29.96&lt;br&gt;Ports:22,68,123&lt;br&gt;OS:Linux&lt;br&gt;User:net3_student24&lt;br&gt;Password:password24" style="text;html=1;align=center;verticalAlign=middle;resizable=0;points=[];autosize=1;strokeColor=none;fillColor=none;hachureGap=4;" vertex="1" parent="1">
          <mxGeometry x="379.5" y="334" width="131" height="74" as="geometry" />
        </mxCell>
        <mxCell id="wpAMq6OOOU0-o7n1YvAS-3" value="" style="endArrow=none;html=1;rounded=0;startSize=14;endSize=14;sourcePerimeterSpacing=8;targetPerimeterSpacing=8;curved=1;exitX=1;exitY=0.5;exitDx=0;exitDy=0;" edge="1" parent="1" source="wpAMq6OOOU0-o7n1YvAS-1">
          <mxGeometry width="50" height="50" relative="1" as="geometry">
            <mxPoint x="625" y="266" as="sourcePoint" />
            <mxPoint x="748" y="251" as="targetPoint" />
          </mxGeometry>
        </mxCell>
        <mxCell id="wpAMq6OOOU0-o7n1YvAS-4" value="" style="endArrow=none;html=1;rounded=0;startSize=14;endSize=14;sourcePerimeterSpacing=8;targetPerimeterSpacing=8;curved=1;exitX=1;exitY=0.5;exitDx=0;exitDy=0;" edge="1" parent="1">
          <mxGeometry width="50" height="50" relative="1" as="geometry">
            <mxPoint x="142" y="256" as="sourcePoint" />
            <mxPoint x="365" y="254" as="targetPoint" />
          </mxGeometry>
        </mxCell>
        <mxCell id="wpAMq6OOOU0-o7n1YvAS-6" value="eth0" style="text;html=1;align=center;verticalAlign=middle;resizable=0;points=[];autosize=1;strokeColor=none;fillColor=none;hachureGap=4;" vertex="1" parent="1">
          <mxGeometry x="525" y="253" width="33" height="18" as="geometry" />
        </mxCell>
        <mxCell id="wpAMq6OOOU0-o7n1YvAS-7" value="10.33.0.10/24" style="text;html=1;align=center;verticalAlign=middle;resizable=0;points=[];autosize=1;strokeColor=none;fillColor=none;hachureGap=4;" vertex="1" parent="1">
          <mxGeometry x="525" y="235" width="83" height="18" as="geometry" />
        </mxCell>
        <mxCell id="wpAMq6OOOU0-o7n1YvAS-9" value="10.3.0.0/24" style="text;html=1;align=center;verticalAlign=middle;resizable=0;points=[];autosize=1;strokeColor=none;fillColor=none;hachureGap=4;" vertex="1" parent="1">
          <mxGeometry x="295" y="237" width="70" height="18" as="geometry" />
        </mxCell>
        <mxCell id="wpAMq6OOOU0-o7n1YvAS-10" value="T2?" style="ellipse;whiteSpace=wrap;html=1;aspect=fixed;hachureGap=4;" vertex="1" parent="1">
          <mxGeometry x="-215" y="182" width="160" height="160" as="geometry" />
        </mxCell>
        <mxCell id="wpAMq6OOOU0-o7n1YvAS-11" value="IP:10.3.0.1&lt;br&gt;Ports:21,80&lt;br&gt;OS:Linux&lt;br&gt;User:&lt;br&gt;Password:" style="text;html=1;align=center;verticalAlign=middle;resizable=0;points=[];autosize=1;strokeColor=none;fillColor=none;hachureGap=4;" vertex="1" parent="1">
          <mxGeometry x="-170.5" y="349" width="71" height="74" as="geometry" />
        </mxCell>
        <mxCell id="wpAMq6OOOU0-o7n1YvAS-12" value="tunnels-training-pineland-insider" style="ellipse;whiteSpace=wrap;html=1;aspect=fixed;hachureGap=4;" vertex="1" parent="1">
          <mxGeometry x="54" y="-190" width="160" height="160" as="geometry" />
        </mxCell>
        <mxCell id="wpAMq6OOOU0-o7n1YvAS-13" value="&lt;div style=&quot;&quot;&gt;&lt;span style=&quot;background-color: initial;&quot;&gt;IP:10.50.21.23&lt;/span&gt;&lt;/div&gt;Ports:22,23,80&lt;br&gt;OS:Linux&lt;br&gt;User:net3_student24&lt;br&gt;Password:password24" style="text;html=1;align=center;verticalAlign=middle;resizable=0;points=[];autosize=1;strokeColor=none;fillColor=none;hachureGap=4;" vertex="1" parent="1">
          <mxGeometry x="69" y="-24" width="131" height="74" as="geometry" />
        </mxCell>
        <mxCell id="wpAMq6OOOU0-o7n1YvAS-14" value="10.3.0.10" style="text;html=1;strokeColor=none;fillColor=none;align=center;verticalAlign=middle;whiteSpace=wrap;rounded=0;hachureGap=4;" vertex="1" parent="1">
          <mxGeometry x="415" y="143" width="60" height="30" as="geometry" />
        </mxCell>
      </root>
    </mxGraphModel>
  </diagram>
</mxfile>
